<svg fill="none" xmlns="http://www.w3.org/2000/svg" viewBox="0 0 11 11">
  <path d="M4.77 1.375c.193 0 .38-.072.516-.201A.668.668 0 0 0 5.5.688.668.668 0 0 0 5.286.2.754.754 0 0 0 4.77 0H.73a.754.754 0 0 0-.516.201A.668.668 0 0 0 0 .687v9.626c0 .182.077.357.214.486A.754.754 0 0 0 .73 11h4.04c.193 0 .38-.072.516-.201a.668.668 0 0 0 .214-.486.668.668 0 0 0-.214-.487.754.754 0 0 0-.516-.201H1.46v-8.25h3.31Z"
  fill="#fff" />
  <path d="m10.883 5.118-1.81-2.64a.628.628 0 0 0-1.065.029.671.671 0 0 0 .02.737L9.13 4.84h-5.19c-.17 0-.333.07-.453.193a.67.67 0 0 0 0 .933c.12.124.283.193.453.193h5.132L7.92 7.744a.668.668 0 0 0-.122.49.672.672 0 0 0 .25.434.63.63 0 0 0 .898-.132l1.925-2.64a.672.672 0 0 0 .013-.778Z"
  fill="#fff" />
</svg>