<svg width="112" height="28" viewBox="0 0 112 28" fill="none" xmlns="http://www.w3.org/2000/svg">
<path d="M13.1191 12.625L16.6699 4.9375H20.5137L14.9121 15.8125V22H11.3379V15.8125L5.73633 4.9375H9.5918L13.1191 12.625ZM20.5488 15.543C20.5488 14.2852 20.791 13.1641 21.2754 12.1797C21.7598 11.1953 22.4551 10.4336 23.3613 9.89453C24.2754 9.35547 25.334 9.08594 26.5371 9.08594C28.248 9.08594 29.6426 9.60938 30.7207 10.6562C31.8066 11.7031 32.4121 13.125 32.5371 14.9219L32.5605 15.7891C32.5605 17.7344 32.0176 19.2969 30.9316 20.4766C29.8457 21.6484 28.3887 22.2344 26.5605 22.2344C24.7324 22.2344 23.2715 21.6484 22.1777 20.4766C21.0918 19.3047 20.5488 17.7109 20.5488 15.6953V15.543ZM23.9355 15.7891C23.9355 16.9922 24.1621 17.9141 24.6152 18.5547C25.0684 19.1875 25.7168 19.5039 26.5605 19.5039C27.3809 19.5039 28.0215 19.1914 28.4824 18.5664C28.9434 17.9336 29.1738 16.9258 29.1738 15.543C29.1738 14.3633 28.9434 13.4492 28.4824 12.8008C28.0215 12.1523 27.373 11.8281 26.5371 11.8281C25.709 11.8281 25.0684 12.1523 24.6152 12.8008C24.1621 13.4414 23.9355 14.4375 23.9355 15.7891ZM42.2402 20.7109C41.4043 21.7266 40.248 22.2344 38.7715 22.2344C37.4121 22.2344 36.373 21.8438 35.6543 21.0625C34.9434 20.2812 34.5801 19.1367 34.5645 17.6289V9.32031H37.9512V17.5117C37.9512 18.832 38.5527 19.4922 39.7559 19.4922C40.9043 19.4922 41.6934 19.0938 42.123 18.2969V9.32031H45.5215V22H42.334L42.2402 20.7109ZM51.8145 15.9883V22H48.2988V4.9375H54.9551C56.2363 4.9375 57.3613 5.17188 58.3301 5.64062C59.3066 6.10938 60.0566 6.77734 60.5801 7.64453C61.1035 8.50391 61.3652 9.48438 61.3652 10.5859C61.3652 12.2578 60.791 13.5781 59.6426 14.5469C58.502 15.5078 56.9199 15.9883 54.8965 15.9883H51.8145ZM51.8145 13.1406H54.9551C55.8848 13.1406 56.5918 12.9219 57.0762 12.4844C57.5684 12.0469 57.8145 11.4219 57.8145 10.6094C57.8145 9.77344 57.5684 9.09766 57.0762 8.58203C56.584 8.06641 55.9043 7.80078 55.0371 7.78516H51.8145V13.1406ZM70.7754 22C70.6191 21.6953 70.5059 21.3164 70.4355 20.8633C69.6152 21.7773 68.5488 22.2344 67.2363 22.2344C65.9941 22.2344 64.9629 21.875 64.1426 21.1562C63.3301 20.4375 62.9238 19.5312 62.9238 18.4375C62.9238 17.0938 63.4199 16.0625 64.4121 15.3438C65.4121 14.625 66.8535 14.2617 68.7363 14.2539H70.2949V13.5273C70.2949 12.9414 70.1426 12.4727 69.8379 12.1211C69.541 11.7695 69.0684 11.5938 68.4199 11.5938C67.8496 11.5938 67.4004 11.7305 67.0723 12.0039C66.752 12.2773 66.5918 12.6523 66.5918 13.1289H63.2051C63.2051 12.3945 63.4316 11.7148 63.8848 11.0898C64.3379 10.4648 64.9785 9.97656 65.8066 9.625C66.6348 9.26562 67.5645 9.08594 68.5957 9.08594C70.1582 9.08594 71.3965 9.48047 72.3105 10.2695C73.2324 11.0508 73.6934 12.1523 73.6934 13.5742V19.0703C73.7012 20.2734 73.8691 21.1836 74.1973 21.8008V22H70.7754ZM67.9746 19.6445C68.4746 19.6445 68.9355 19.5352 69.3574 19.3164C69.7793 19.0898 70.0918 18.7891 70.2949 18.4141V16.2344H69.0293C67.334 16.2344 66.4316 16.8203 66.3223 17.9922L66.3105 18.1914C66.3105 18.6133 66.459 18.9609 66.7559 19.2344C67.0527 19.5078 67.459 19.6445 67.9746 19.6445ZM83.4199 12.4961C82.959 12.4336 82.5527 12.4023 82.2012 12.4023C80.9199 12.4023 80.0801 12.8359 79.6816 13.7031V22H76.2949V9.32031H79.4941L79.5879 10.832C80.2676 9.66797 81.209 9.08594 82.4121 9.08594C82.7871 9.08594 83.1387 9.13672 83.4668 9.23828L83.4199 12.4961ZM89.7012 6.20312V9.32031H91.8691V11.8047H89.7012V18.1328C89.7012 18.6016 89.791 18.9375 89.9707 19.1406C90.1504 19.3438 90.4941 19.4453 91.002 19.4453C91.377 19.4453 91.709 19.418 91.998 19.3633V21.9297C91.334 22.1328 90.6504 22.2344 89.9473 22.2344C87.5723 22.2344 86.3613 21.0352 86.3145 18.6367V11.8047H84.4629V9.32031H86.3145V6.20312H89.7012ZM98.4902 17.207L100.834 9.32031H104.467L99.3691 23.9688L99.0879 24.6367C98.3301 26.293 97.0801 27.1211 95.3379 27.1211C94.8457 27.1211 94.3457 27.0469 93.8379 26.8984V24.332L94.3535 24.3438C94.9941 24.3438 95.4707 24.2461 95.7832 24.0508C96.1035 23.8555 96.3535 23.5312 96.5332 23.0781L96.9316 22.0352L92.4902 9.32031H96.1348L98.4902 17.207Z" fill="#DA3A3A"/>
<path d="M2 2V24" stroke="#DA3A3A" stroke-width="4"/>
</svg>
