<svg width="19" height="19" viewBox="0 0 19 19" fill="none" xmlns="http://www.w3.org/2000/svg">
<path d="M18.375 1.49989C18.3659 1.41951 18.3483 1.34032 18.3225 1.26364V1.18489C18.2806 1.08751 18.2213 0.998564 18.1475 0.92239C18.0733 0.852622 17.9874 0.79636 17.8938 0.75614H17.815C17.7344 0.694549 17.6421 0.649904 17.5438 0.62489H17.5C17.413 0.61169 17.3245 0.61169 17.2375 0.62489L1.48752 5.87489C1.31246 5.93243 1.16004 6.04377 1.05198 6.19303C0.943919 6.3423 0.885742 6.52187 0.885742 6.70614C0.885742 6.89041 0.943919 7.06998 1.05198 7.21925C1.16004 7.36851 1.31246 7.47985 1.48752 7.53739L8.95127 10.0224L11.4363 17.4861C11.4938 17.6612 11.6052 17.8136 11.7544 17.9217C11.9037 18.0297 12.0833 18.0879 12.2675 18.0879C12.4518 18.0879 12.6314 18.0297 12.7806 17.9217C12.9299 17.8136 13.0412 17.6612 13.0988 17.4861L18.3488 1.73614C18.3682 1.65895 18.3771 1.57947 18.375 1.49989ZM14.2625 3.50364L9.38877 8.37739L4.51502 6.74989L14.2625 3.50364ZM12.25 14.4849L10.6225 9.61114L15.4963 4.73739L12.25 14.4849Z" fill="#DA3A3A"/>
</svg>
