<svg width="14" height="10" viewBox="0 0 14 10" fill="none" xmlns="http://www.w3.org/2000/svg">
<path d="M7.08907 9.83852C5.51592 9.78892 4.01992 9.75035 2.52391 9.6925C2.20157 9.67872 1.87372 9.62913 1.55964 9.55474C0.970052 9.41699 0.562301 9.06159 0.352915 8.48026C0.184855 8.0119 0.124244 7.52976 0.0801626 7.03936C-0.016265 5.88774 -0.016265 4.73612 0.0305713 3.5845C0.058122 2.9343 0.0746525 2.27859 0.248222 1.64768C0.352915 1.27024 0.479648 0.901056 0.785462 0.628304C1.10781 0.339021 1.48525 0.165451 1.91504 0.146166C3.09421 0.0883093 4.27063 0.0166774 5.4498 0.00565714C7.03672 -0.0108733 8.6264 0.0111674 10.2133 0.0414732C10.8993 0.0552486 11.5909 0.0910645 12.2714 0.179227C12.894 0.261879 13.3596 0.609018 13.6076 1.21513C13.7977 1.68074 13.8693 2.16839 13.9106 2.6643C14.0181 3.90684 14.0208 5.14938 13.9602 6.39192C13.9299 7.02283 13.8996 7.6565 13.7205 8.27088C13.5167 8.97618 13.0841 9.44178 12.3623 9.60158C12.0813 9.66219 11.7892 9.68423 11.5027 9.69525C10.0039 9.7476 8.50793 9.79443 7.08907 9.83852ZM5.56552 6.706C6.82183 6.0558 8.06437 5.41111 9.3317 4.75265C8.06712 4.09143 6.82458 3.44399 5.56552 2.78553C5.56552 4.0997 5.56552 5.39183 5.56552 6.706Z" fill="#3ADA62"/>
</svg>
