<svg fill="none" xmlns="http://www.w3.org/2000/svg" viewBox="0 0 13 15">
  <path d="M12 4.695C9.71 2.737 4.745 3.017 2.54 5 .337 6.98.552 10.572 2.842 12.53c2.29 1.959 6.87 1.959 9.159 0m0-7.836L10.675 1M12 4.695 8.05 5.99" stroke="#fff" stroke-width="1.5" stroke-linecap="round" stroke-linejoin="round" />
  <path d="M6.956 12H6.25V9.28l-.842.261v-.573L6.88 8.44h.076V12Zm1.262-1.748.205-1.807h1.992v.589H9.001l-.087.764c.167-.09.345-.134.534-.134.339 0 .604.105.796.315.192.21.288.503.288.88 0 .23-.049.436-.146.618-.096.181-.235.322-.415.423-.181.1-.394.149-.64.149a1.39 1.39 0 0 1-.598-.13 1.078 1.078 0 0 1-.437-.368 1.007 1.007 0 0 1-.169-.54h.699a.53.53 0 0 0 .153.347c.09.081.206.122.35.122.16 0 .282-.057.368-.17.087-.117.13-.28.13-.49 0-.201-.05-.356-.15-.463-.099-.107-.24-.161-.422-.161a.61.61 0 0 0-.407.132l-.069.063-.561-.139Z" fill="#fff" />
</svg>