<svg width="22" height="29" viewBox="0 0 22 29" fill="none" xmlns="http://www.w3.org/2000/svg">
<path d="M4.08398 24.248C4.08398 24.041 3.98047 23.8789 3.77344 23.7617C3.57031 23.6406 3.24219 23.5332 2.78906 23.4395C1.28125 23.123 0.527344 22.4824 0.527344 21.5176C0.527344 20.9551 0.759766 20.4863 1.22461 20.1113C1.69336 19.7324 2.30469 19.543 3.05859 19.543C3.86328 19.543 4.50586 19.7324 4.98633 20.1113C5.4707 20.4902 5.71289 20.9824 5.71289 21.5879H4.01953C4.01953 21.3457 3.94141 21.1465 3.78516 20.9902C3.62891 20.8301 3.38477 20.75 3.05273 20.75C2.76758 20.75 2.54688 20.8145 2.39062 20.9434C2.23438 21.0723 2.15625 21.2363 2.15625 21.4355C2.15625 21.623 2.24414 21.7754 2.41992 21.8926C2.59961 22.0059 2.90039 22.1055 3.32227 22.1914C3.74414 22.2734 4.09961 22.3672 4.38867 22.4727C5.2832 22.8008 5.73047 23.3691 5.73047 24.1777C5.73047 24.7559 5.48242 25.2246 4.98633 25.584C4.49023 25.9395 3.84961 26.1172 3.06445 26.1172C2.5332 26.1172 2.06055 26.0234 1.64648 25.8359C1.23633 25.6445 0.914062 25.3848 0.679688 25.0566C0.445312 24.7246 0.328125 24.3672 0.328125 23.9844H1.93359C1.94922 24.2852 2.06055 24.5156 2.26758 24.6758C2.47461 24.8359 2.75195 24.916 3.09961 24.916C3.42383 24.916 3.66797 24.8555 3.83203 24.7344C4 24.6094 4.08398 24.4473 4.08398 24.248ZM10.8 26C10.7219 25.8477 10.6652 25.6582 10.6301 25.4316C10.2199 25.8887 9.68672 26.1172 9.03047 26.1172C8.40938 26.1172 7.89375 25.9375 7.48359 25.5781C7.07734 25.2188 6.87422 24.7656 6.87422 24.2188C6.87422 23.5469 7.12227 23.0312 7.61836 22.6719C8.11836 22.3125 8.83906 22.1309 9.78047 22.127H10.5598V21.7637C10.5598 21.4707 10.4836 21.2363 10.3313 21.0605C10.1828 20.8848 9.94648 20.7969 9.62227 20.7969C9.33711 20.7969 9.1125 20.8652 8.94844 21.002C8.78828 21.1387 8.7082 21.3262 8.7082 21.5645H7.01484C7.01484 21.1973 7.12813 20.8574 7.35469 20.5449C7.58125 20.2324 7.90156 19.9883 8.31563 19.8125C8.72969 19.6328 9.19453 19.543 9.71016 19.543C10.4914 19.543 11.1105 19.7402 11.5676 20.1348C12.0285 20.5254 12.259 21.0762 12.259 21.7871V24.5352C12.2629 25.1367 12.3469 25.5918 12.5109 25.9004V26H10.8ZM9.39961 24.8223C9.64961 24.8223 9.88008 24.7676 10.091 24.6582C10.302 24.5449 10.4582 24.3945 10.5598 24.207V23.1172H9.92695C9.0793 23.1172 8.62813 23.4102 8.57344 23.9961L8.56758 24.0957C8.56758 24.3066 8.6418 24.4805 8.79023 24.6172C8.93867 24.7539 9.1418 24.8223 9.39961 24.8223ZM15.6469 26H13.9477V19.6602H15.6469V26ZM13.848 18.0195C13.848 17.7656 13.932 17.5566 14.1 17.3926C14.2719 17.2285 14.5043 17.1465 14.7973 17.1465C15.0863 17.1465 15.3168 17.2285 15.4887 17.3926C15.6605 17.5566 15.7465 17.7656 15.7465 18.0195C15.7465 18.2773 15.6586 18.4883 15.4828 18.6523C15.3109 18.8164 15.0824 18.8984 14.7973 18.8984C14.5121 18.8984 14.2816 18.8164 14.1059 18.6523C13.934 18.4883 13.848 18.2773 13.848 18.0195ZM20.9098 21.248C20.6793 21.2168 20.4762 21.2012 20.3004 21.2012C19.6598 21.2012 19.2398 21.418 19.0406 21.8516V26H17.3473V19.6602H18.9469L18.9937 20.416C19.3336 19.834 19.8043 19.543 20.4059 19.543C20.5934 19.543 20.7691 19.5684 20.9332 19.6191L20.9098 21.248Z" fill="white"/>
<path d="M9.62935 4.94314C9.84785 4.94314 10.0574 4.85634 10.2119 4.70183C10.3664 4.54733 10.4532 4.33778 10.4532 4.11927C10.4532 3.90077 10.3664 3.69122 10.2119 3.53671C10.0574 3.38221 9.84785 3.29541 9.62935 3.29541H5.07386C4.85536 3.29541 4.64581 3.38221 4.4913 3.53671C4.3368 3.69122 4.25 3.90077 4.25 4.11927V15.6534C4.25 15.8719 4.3368 16.0814 4.4913 16.2359C4.64581 16.3904 4.85536 16.4772 5.07386 16.4772H9.62935C9.84785 16.4772 10.0574 16.3904 10.2119 16.2359C10.3664 16.0814 10.4532 15.8719 10.4532 15.6534C10.4532 15.4349 10.3664 15.2253 10.2119 15.0708C10.0574 14.9163 9.84785 14.8295 9.62935 14.8295H5.89773V4.94314H9.62935Z" fill="white"/>
<path d="M18.1072 9.40851L15.7839 6.11306C15.6579 5.93544 15.4667 5.81494 15.2521 5.77789C15.0375 5.74083 14.817 5.79025 14.6387 5.91533C14.5496 5.97777 14.4738 6.05724 14.4156 6.14915C14.3573 6.24106 14.3179 6.34359 14.2995 6.45083C14.2811 6.55807 14.2842 6.66788 14.3085 6.77394C14.3327 6.88 14.3778 6.98019 14.441 7.06874L15.8581 9.06249H9.193C8.9745 9.06249 8.76495 9.14929 8.61044 9.30379C8.45594 9.4583 8.36914 9.66785 8.36914 9.88635C8.36914 10.1049 8.45594 10.3144 8.61044 10.4689C8.76495 10.6234 8.9745 10.7102 9.193 10.7102H15.7839L14.301 12.6875C14.236 12.774 14.1888 12.8725 14.162 12.9773C14.1351 13.0821 14.1292 13.1912 14.1445 13.2983C14.1598 13.4054 14.196 13.5085 14.2511 13.6016C14.3063 13.6947 14.3792 13.776 14.4657 13.8409C14.6083 13.9479 14.7818 14.0057 14.96 14.0057C15.0879 14.0057 15.2141 13.9759 15.3285 13.9187C15.4429 13.8615 15.5424 13.7784 15.6191 13.6761L18.0907 10.3807C18.1962 10.2413 18.2547 10.072 18.2577 9.89728C18.2606 9.72252 18.2079 9.55135 18.1072 9.40851Z" fill="white"/>
</svg>
