<svg width="12" height="9" viewBox="0 0 12 9" fill="none" xmlns="http://www.w3.org/2000/svg">
<path d="M6.16306 8.04559C4.83439 8.00503 3.57087 7.97349 2.30736 7.92618C2.03511 7.91491 0.530346 9 0.108049 9C-0.314249 9 0.650588 7.41024 0.473742 6.93486C0.3318 6.55185 0.280608 6.15757 0.243377 5.75654C0.161935 4.81478 0.161935 3.87303 0.201493 2.93127C0.224762 2.39957 0.238723 1.86335 0.385319 1.34741C0.473742 1.03875 0.580781 0.736852 0.839069 0.513804C1.11132 0.277239 1.43011 0.1353 1.79311 0.119529C2.78903 0.0722162 3.78262 0.0136382 4.77855 0.0046262C6.11885 -0.0088918 7.46149 0.00913228 8.80179 0.0339153C9.3812 0.0451803 9.96525 0.0744693 10.54 0.146565C11.0659 0.214155 11.4591 0.498033 11.6686 0.993694C11.8291 1.37445 11.8896 1.77323 11.9245 2.17877C12.0153 3.19488 12.0176 4.21098 11.9664 5.22708C11.9408 5.74302 11.9152 6.26121 11.764 6.76363C11.5918 7.3404 11.2264 7.72116 10.6168 7.85183C10.3794 7.9014 10.1328 7.91942 9.89079 7.92843C8.62495 7.97124 7.36143 8.00954 6.16306 8.04559Z" fill="white"/>
</svg>
