<svg width="11" height="10" viewBox="0 0 11 10" fill="none" xmlns="http://www.w3.org/2000/svg">
<path d="M1.139 9.99995C1.28555 10.0003 1.43034 9.97677 1.56275 9.93104C1.69516 9.8853 1.81181 9.81855 1.90413 9.73569L6.64208 5.45038C6.78636 5.32258 6.86523 5.16228 6.86523 4.99685C6.86523 4.83142 6.78636 4.67112 6.64208 4.54332L1.73737 0.258013C1.57087 0.112158 1.33161 0.0204347 1.07222 0.00302222C0.812833 -0.0143902 0.55457 0.0439342 0.354245 0.165165C0.153921 0.286395 0.0279441 0.460601 0.0040288 0.649459C-0.019886 0.838317 0.0602188 1.02636 0.226722 1.17221L4.61153 5.00042L0.373864 8.82863C0.253911 8.93347 0.177715 9.06113 0.15429 9.19651C0.130866 9.33189 0.161194 9.46932 0.241686 9.59254C0.322178 9.71577 0.449465 9.81962 0.608486 9.89182C0.767506 9.96402 0.951606 10.0015 1.139 9.99995Z" fill="white"/>
<path d="M5.0628 9.99995C5.20935 10.0003 5.35415 9.97677 5.48655 9.93104C5.61896 9.8853 5.73561 9.81855 5.82794 9.73569L10.5659 5.45038C10.7102 5.32258 10.7891 5.16228 10.7891 4.99685C10.7891 4.83142 10.7102 4.67112 10.5659 4.54332L5.66118 0.258013C5.49467 0.112158 5.25541 0.0204347 4.99602 0.00302222C4.73663 -0.0143902 4.47837 0.0439342 4.27804 0.165165C4.07772 0.286395 3.95174 0.460601 3.92783 0.649459C3.90391 0.838317 3.98402 1.02636 4.15052 1.17221L8.53535 5.00042L4.29766 8.82863C4.17771 8.93347 4.10151 9.06113 4.07809 9.19651C4.05466 9.33189 4.08499 9.46932 4.16548 9.59254C4.24598 9.71577 4.37326 9.81962 4.53229 9.89182C4.69131 9.96402 4.87541 10.0015 5.0628 9.99995Z" fill="white"/>
</svg>
