<svg width="10" height="15" viewBox="0 0 10 15" fill="none" xmlns="http://www.w3.org/2000/svg">
<path d="M2.26607 14.776C2.44071 14.7766 2.61328 14.7423 2.77107 14.6758C2.92887 14.6092 3.06789 14.5121 3.17792 14.3915L8.82439 8.1554C8.99633 7.96943 9.09033 7.73615 9.09033 7.49541C9.09033 7.25468 8.99633 7.0214 8.82439 6.83543L2.97918 0.599344C2.78075 0.387092 2.49561 0.253614 2.18648 0.228275C1.87736 0.202936 1.56957 0.287811 1.33083 0.464228C1.09209 0.640646 0.941961 0.894154 0.913461 1.16899C0.88496 1.44382 0.980426 1.71746 1.17886 1.92971L6.40447 7.50061L1.35421 13.0715C1.21126 13.2241 1.12045 13.4098 1.09254 13.6069C1.06462 13.8039 1.10076 14.0039 1.19669 14.1832C1.29262 14.3625 1.44431 14.5136 1.63382 14.6187C1.82334 14.7238 2.04274 14.7784 2.26607 14.776Z" fill="white"/>
</svg>
