<svg fill="none" xmlns="http://www.w3.org/2000/svg" viewBox="0 0 16 10">
  <path d="M12.714 8.5H16c0-1.06-.316-2.078-.879-2.828a3.042 3.042 0 0 0-1.117-.942A2 2 0 0 0 13 1a2 2 0 0 0-1.004 3.73 2.85 2.85 0 0 0-.768.542c.106.135.209.276.308.425.532.798.932 1.758 1.178 2.803ZM4.772 5.272a2.85 2.85 0 0 0-.769-.542 2 2 0 1 0-2.006 0c-.417.198-.8.517-1.118.942C.316 6.422 0 7.439 0 8.5h3.286c.246-1.045.646-2.005 1.178-2.803.1-.149.202-.29.308-.425ZM12 10c0-1.459-.421-2.858-1.172-3.89C10.078 5.08 9.061 4.5 8 4.5c-1.06 0-2.078.58-2.828 1.61C4.422 7.143 4 8.542 4 10h8Z"
  fill="currentColor" />
  <path d="M10.25 2.75a2.25 2.25 0 1 1-4.5 0 2.25 2.25 0 0 1 4.5 0Z"
  fill="currentColor" />
</svg>