<svg fill="none" xmlns="http://www.w3.org/2000/svg" viewBox="0 0 12 12">
  <path fill-rule="evenodd" clip-rule="evenodd" d="m2.902 1.077 2.488 3.11-.78.625-1.512-1.89-.65 1.302-.895-.448 1.35-2.699Zm6.196 0 1.35 2.7-.895.447-.65-1.301-1.513 1.89-.78-.625 2.488-3.11Z" fill="#AAA" />
  <path fill-rule="evenodd" clip-rule="evenodd" d="M0 .54v9.96c1.047.615 2.923 1.5 6 1.5s4.953-.885 6-1.5V.54L8 6 6 0 4 6 0 .54Zm6 2.622-1.663 4.99L1 3.597v6.312C1.996 10.42 3.586 11 6 11c2.415 0 4.004-.581 5-1.09V3.596L7.663 8.152 6 3.162Z" fill="#fff" />
</svg>