<svg fill="none" xmlns="http://www.w3.org/2000/svg" viewBox="0 0 14 10">
  <path d="M7.09 9.839c-1.574-.05-3.07-.089-4.566-.146a5.182 5.182 0 0 1-.964-.138C.97 9.417.562 9.062.353 8.48.185 8.012.124 7.53.08 7.04a27.807 27.807 0 0 1-.05-3.456c.028-.65.045-1.305.218-1.936C.353 1.27.48.9.785.628c.323-.289.7-.463 1.13-.482C3.095.088 4.271.016 5.45.006 7.037-.011 8.626.01 10.213.04c.686.014 1.378.05 2.058.138.623.083 1.089.43 1.337 1.036.19.466.261.953.303 1.45.107 1.242.11 2.484.05 3.727-.031.63-.061 1.264-.24 1.879-.204.705-.637 1.17-1.359 1.33-.28.061-.573.083-.86.094-1.498.053-2.994.1-4.413.144ZM5.565 6.706c1.256-.65 2.498-1.295 3.766-1.953-1.265-.662-2.507-1.309-3.766-1.967v3.92Z"
  fill="currentColor" />
</svg>