<svg fill="none" xmlns="http://www.w3.org/2000/svg" viewBox="0 0 13 15">
  <path d="M1 4.695C3.29 2.737 8.255 3.017 10.46 5c2.204 1.981 1.989 5.573-.301 7.532-2.29 1.959-6.87 1.959-9.159 0m0-7.836L2.326 1M1 4.695 4.95 5.99" stroke="#fff" stroke-width="1.5" stroke-linecap="round" stroke-linejoin="round" />
  <path d="M3.956 12H3.25V9.28l-.842.261v-.573L3.88 8.44h.076V12Zm1.262-1.748.205-1.807h1.992v.589H6.001l-.087.764c.167-.09.345-.134.534-.134.339 0 .604.105.796.315.192.21.288.503.288.88 0 .23-.049.436-.146.618-.096.181-.235.322-.415.423-.181.1-.394.149-.64.149a1.39 1.39 0 0 1-.598-.13 1.078 1.078 0 0 1-.437-.368 1.007 1.007 0 0 1-.169-.54h.699a.53.53 0 0 0 .153.347c.09.081.206.122.35.122.16 0 .282-.057.368-.17.087-.117.13-.28.13-.49 0-.201-.05-.356-.15-.463-.099-.107-.24-.161-.422-.161a.61.61 0 0 0-.407.132l-.069.063-.561-.139Z" fill="#fff" />
</svg>